<?xml version="1.0" standalone="no"?>
<!DOCTYPE svg PUBLIC "-//W3C//DTD SVG 20010904//EN"
 "http://www.w3.org/TR/2001/REC-SVG-20010904/DTD/svg10.dtd">
<svg version="1.0" xmlns="http://www.w3.org/2000/svg"
 width="16.000000pt" height="16.000000pt" viewBox="0 0 16.000000 16.000000"
 preserveAspectRatio="xMidYMid meet">

<g transform="translate(0.000000,16.000000) scale(0.100000,-0.100000)"
fill="#000000" stroke="none">
<path d="M40 111 c0 -10 -3 -33 -6 -50 -7 -33 11 -45 19 -13 4 16 5 16 6 0 1
-25 16 -22 30 5 l11 22 -6 -22 c-3 -14 -1 -23 6 -23 12 0 16 10 24 63 4 30 2
37 -13 37 -9 0 -22 -12 -28 -27 l-11 -28 -1 28 c-1 31 -31 39 -31 8z"/>
</g>
</svg>
